#!OML:ASF Y:\EmotionMaleHayes\Project 1\Capture day 1\Session 1\Male1.ASF
:FULLY-SPECIFIED
:DEGREES
177
root -1.98907 15.9061 0.192685 12.0106 83.8558 7.55303
lowerback 19.3641 1.99197 -5.36558
upperback 3.89906 1.90468 2.05116
thorax -6.8406 1.13498 4.79477
lowerneck -28.604 4.0362 3.58692
upperneck 10.0404 5.13947 -5.51293
head 7.87964 2.04155 -1.69444
rclavicle 9.54166e-015 1.11319e-014
rhumerus -58.5677 16.9573 -93.7707
rradius 94.3343
rwrist -22.1334
rhand -33.3515 -28.7098
rfingers 7.12502
rthumb -6.55351 -58.5884
lclavicle 9.54166e-015 1.11319e-014
lhumerus -52.3664 -23.7306 107.176
lradius 96.9766
lwrist 19.4347
lhand -25.7847 -31.9993
lfingers 7.12502
lthumb 0.753727 -2.02093
rfemur -26.5398 2.84227 25.7596
rtibia 48.1892
rfoot -27.6334 -5.39714
rtoes -1.42405
lfemur 3.87359 8.10362 -18.9301
ltibia 87.4244
lfoot 31.418 -60.2048
ltoes 5.10232
178
root -1.67603 15.7979 0.177297 -14.2519 83.0331 -18.6037
lowerback 19.5818 2.13075 -2.35072
upperback 4.25119 2.77384 2.81151
thorax -6.5937 1.50759 3.6652
lowerneck -29.3846 3.92126 3.87425
upperneck 9.93394 4.90112 -5.72877
head 7.96194 1.91154 -1.84407
rclavicle -2.127e-014 -2.26615e-014
rhumerus -54.732 17.0285 -93.6758
rradius 94.3002
rwrist -22.4644
rhand -34.0985 -29.3961
rfingers 7.12502
rthumb -7.27467 -59.2511
lclavicle -2.127e-014 -2.26615e-014
lhumerus -52.4971 -22.4157 106.931
lradius 94.402
lwrist 20.1555
lhand -25.8601 -31.4529
lfingers 7.12502
lthumb 0.680839 -1.47422
rfemur -24.9589 4.2494 29.5694
rtibia 48.5738
rfoot -29.0598 -5.59752
rtoes -0.372704
lfemur 1.00181 9.74549 -14.6957
ltibia 87.2796
lfoot 113.356 -71.9117
ltoes 3.63961
179
root -1.35282 15.7365 0.168146 -31.1802 83.1564 -34.6692
lowerback 20.6966 1.79367 -0.388462
upperback 4.66321 2.82432 3.34932
thorax -6.68248 1.52023 3.08968
lowerneck -29.9104 3.85102 4.17035
upperneck 9.80306 4.73636 -6.02967
head 8.00301 1.81079 -2.01634
rclavicle 4.77083e-015 1.51076e-014
rhumerus -51.1558 17.486 -93.5265
rradius 94.4213
rwrist -22.0685
rhand -33.4927 -29.6749
rfingers 7.12502
rthumb -6.68986 -59.5492
lclavicle 4.77083e-015 1.51076e-014
lhumerus -52.8874 -20.9655 106.61
lradius 91.8745
lwrist 20.6589
lhand -27.0075 -30.8259
lfingers 7.12502
lthumb -0.427378 -0.846588
rfemur -21.9516 4.04964 31.6926
rtibia 47.8993
rfoot -30.4591 -6.33588
rtoes -0.09773
lfemur -1.61236 9.59155 -12.1056
ltibia 83.9808
lfoot 159.971 -47.5262
ltoes 1.3696
180
root -1.06648 15.6686 0.17756 -37.5347 82.998 -41.293
lowerback 20.9541 1.81624 0.224302
upperback 4.5992 3.02237 3.63409
thorax -6.88671 1.61211 2.98902
lowerneck -30.3185 3.81461 4.37071
upperneck 9.86528 4.63684 -6.2111
head 8.0895 1.74638 -2.12424
rclavicle -6.95746e-015 -2.74323e-014
rhumerus -47.7608 18.0597 -93.3634
rradius 94.4542
rwrist -21.0842
rhand -34.1631 -28.6122
rfingers 7.12502
rthumb -7.33699 -58.4649
lclavicle -6.95746e-015 -2.74323e-014
lhumerus -53.7597 -19.4253 106.11
lradius 89.7053
lwrist 21.0542
lhand -28.3271 -29.4544
lfingers 7.12502
lthumb -1.70185 0.518597
rfemur -20.8454 4.37872 32.7596
rtibia 47.8756
rfoot -31.5911 -7.04355
rtoes -0.781169
lfemur -6.06236 10.0628 -10.8993
ltibia 79.4076
lfoot 172.088 -16.6788
ltoes 1.24895
181
root -0.737264 15.6327 0.179566 -37.0079 82.594 -41.0056
lowerback 20.7919 2.06737 0.338301
upperback 4.60026 3.37702 3.72404
thorax -6.81925 1.7819 2.93075
lowerneck -30.7029 3.75873 4.32765
upperneck 10.0387 4.57885 -6.22498
head 8.20221 1.70753 -2.13028
rclavicle 3.95581e-014 7.87187e-014
rhumerus -44.3619 18.7058 -93.1488
rradius 94.5539
rwrist -20.592
rhand -33.6322 -28.0662
rfingers 7.12502
rthumb -6.8245 -57.9362
lclavicle 3.95581e-014 7.87187e-014
lhumerus -54.8619 -17.9445 105.491
lradius 87.9427
lwrist 21.5394
lhand -29.6644 -27.0815
lfingers 7.12502
lthumb -2.99338 2.87721
rfemur -19.4367 4.89413 33.1249
rtibia 47.5037
rfoot -32.5111 -7.28903
rtoes -0.103876
lfemur -10.1711 11.15 -10.5039
ltibia 75.9309
lfoot 172.257 -12.9739
ltoes 2.7715
182
root -0.389371 15.6278 0.170725 -36.4008 82.2839 -40.3648
lowerback 20.7375 2.20405 0.560815
upperback 4.68309 3.60035 3.71186
thorax -6.69878 1.88704 2.7339
lowerneck -30.9913 3.71989 4.33077
upperneck 10.2702 4.52683 -6.23095
head 8.32229 1.6738 -2.14079
rclavicle 1.19271e-015 1.59028e-015
rhumerus -40.9279 19.5473 -93.0108
rradius 94.5729
rwrist -20.2463
rhand -32.3287 -27.7425
rfingers 7.12502
rthumb -5.56606 -57.6494
lclavicle 1.19271e-015 1.59028e-015
lhumerus -56.1768 -16.8066 104.856
lradius 86.4399
lwrist 22.5579
lhand -31.56 -24.5466
lfingers 7.12502
lthumb -4.82389 5.37844
rfemur -17.504 5.21812 33.2773
rtibia 46.8819
rfoot -33.5522 -7.17252
rtoes 2.11466
lfemur -13.6479 12.1231 -10.3283
ltibia 73.5608
lfoot 172.347 -11.2181
ltoes 2.91661
183
root -0.0486528 15.6334 0.157239 -37.4462 82.1797 -41.4814
lowerback 20.6109 2.2052 1.04529
upperback 4.70357 3.69113 3.61226
thorax -6.5783 1.9227 2.33085
lowerneck -31.1311 3.70921 4.59643
upperneck 10.476 4.43349 -6.36895
head 8.41937 1.61927 -2.24623
rclavicle 7.7526e-015 -9.14409e-015
rhumerus -37.6366 20.1309 -93.005
rradius 94.5273
rwrist -18.8487
rhand -32.344 -26.5581
rfingers 7.12502
rthumb -5.58084 -56.4646
lclavicle 7.7526e-015 -9.14409e-015
lhumerus -57.9692 -16.092 104.268
lradius 85.3704
lwrist 24.0655
lhand -33.8698 -21.9434
lfingers 7.12502
lthumb -7.05389 7.91908
rfemur -15.6799 5.17852 33.4331
rtibia 46.1877
rfoot -34.4072 -7.55573
rtoes 1.39069
lfemur -17.4986 12.6661 -10.3099
ltibia 71.4851
lfoot 172.476 -9.7434
ltoes 2.21647
184
root 0.278044 15.6481 0.144427 -40.1267 82.2357 -44.3295
lowerback 20.6197 2.16832 1.63487
upperback 4.60208 3.76157 3.53452
thorax -6.65391 1.94488 1.89165
lowerneck -31.141 3.63532 4.8614
upperneck 10.5791 4.26217 -6.53532
head 8.45759 1.529 -2.37439
rclavicle -3.91606e-014 -1.07344e-014
rhumerus -34.6251 20.1133 -92.9406
rradius 94.5322
rwrist -16.9374
rhand -31.0959 -24.2511
rfingers 7.12502
rthumb -4.3757 -54.1859
lclavicle -3.91606e-014 -1.07344e-014
lhumerus -60.2634 -15.5859 103.768
lradius 85.3288
lwrist 26.5388
lhand -34.834 -23.3945
lfingers 7.12502
lthumb -7.98452 6.43469
rfemur -13.9438 4.90035 33.6281
rtibia 45.3479
rfoot -35.1461 -8.0507
rtoes -0.0512248
lfemur -21.6609 12.8073 -10.2938
ltibia 69.8027
lfoot 172.452 -8.43409
ltoes 3.29843
185
root 0.599152 15.6706 0.128234 -42.7959 82.4663 -47.2834
lowerback 20.6432 2.13764 2.04825
upperback 4.44269 3.80558 3.47642
thorax -6.81043 1.95439 1.57947
lowerneck -31.1638 3.48512 4.9638
upperneck 10.5393 4.02018 -6.54316
head 8.43454 1.41951 -2.43188
rclavicle -2.78299e-015 -1.78906e-014
rhumerus -31.6419 20.1423 -92.7812
rradius 94.7841
rwrist -15.3225
rhand -30.1171 -23.0038
rfingers 7.12502
rthumb -3.4305 -52.9559
lclavicle -2.78299e-015 -1.78906e-014
lhumerus -62.722 -15.2187 103.418
lradius 86.1094
lwrist 29.1521
lhand -35.3825 -22.875
lfingers 7.12502
lthumb -8.5139 6.93338
rfemur -12.1261 4.54323 33.5799
rtibia 43.9205
rfoot -35.7088 -7.72344
rtoes 1.47129
lfemur -25.9099 12.6853 -10.5174
ltibia 68.7224
lfoot 172.34 -7.44482
ltoes 4.30461
186
root 0.95541 15.7127 0.0976817 -39.1323 82.3 -43.6597
lowerback 20.549 2.43611 2.014
upperback 4.48349 4.16072 3.28248
thorax -6.7099 2.12399 1.30241
lowerneck -31.2993 3.30445 4.94428
upperneck 10.4013 3.75652 -6.42039
head 8.38589 1.31015 -2.42679
rclavicle 7.55382e-015 -7.95139e-016
rhumerus -28.875 20.196 -92.5424
rradius 95.3711
rwrist -14.1065
rhand -29.8207 -21.8209
rfingers 7.12502
rthumb -3.14433 -51.7775
lclavicle 7.55382e-015 -7.95139e-016
lhumerus -65.1331 -15.1268 103.167
lradius 86.9706
lwrist 30.8227
lhand -36.0139 -22.58
lfingers 7.12502
lthumb -9.12318 7.20263
rfemur -9.60676 4.50602 33.0174
rtibia 41.8355
rfoot -35.6376 -7.39053
rtoes 0.716123
lfemur -29.07 13.2989 -11.1998
ltibia 68.8179
lfoot 172.082 -7.32596
ltoes 2.3453
187
root 1.3185 15.7615 0.0727876 -33.2418 81.9598 -37.8841
lowerback 20.3514 2.92482 1.71696
upperback 4.43513 4.69421 3.01081
thorax -6.66463 2.37948 1.04918
lowerneck -31.4227 3.07851 4.84236
upperneck 10.4142 3.46244 -6.25518
head 8.38446 1.18481 -2.39953
rclavicle 7.7526e-015 -9.14409e-015
rhumerus -26.85 20.0468 -92.4038
rradius 96.4767
rwrist -13.164
rhand -29.4414 -20.9995
rfingers 7.12502
rthumb -2.77796 -50.9611
lclavicle 7.7526e-015 -9.14409e-015
lhumerus -67.6073 -15.418 103.079
lradius 87.5955
lwrist 31.5583
lhand -36.2626 -22.7814
lfingers 7.12502
lthumb -9.36318 6.99066
rfemur -7.04518 4.87988 32.2717
rtibia 39.6579
rfoot -35.4122 -6.80786
rtoes 0.715434
lfemur -32.0305 14.1427 -12.0578
ltibia 69.5069
lfoot 171.811 -7.22125
ltoes -0.562249
188
root 1.70168 15.8312 0.0531357 -34.0578 81.8947 -38.697
lowerback 20.189 3.11052 2.15758
upperback 4.3523 5.00972 2.89295
thorax -6.62445 2.5216 0.601388
lowerneck -31.2465 2.82121 4.65533
upperneck 10.2739 3.15306 -6.0175
head 8.28294 1.06284 -2.3343
rclavicle 4.53229e-014 0
rhumerus -25.2533 19.8792 -92.322
rradius 97.6749
rwrist -12.6161
rhand -29.3343 -20.1781
rfingers 7.12502
rthumb -2.67459 -50.141
lclavicle 4.53229e-014 0
lhumerus -70.0666 -15.774 103.06
lradius 88.0265
lwrist 31.5794
lhand -35.7982 -23.4673
lfingers 7.12502
lthumb -8.91503 6.32439
rfemur -3.83795 5.16547 32.2644
rtibia 36.7545
rfoot -35.1266 -5.99989
rtoes 3.55779
lfemur -34.7424 14.2423 -12.114
ltibia 70.645
lfoot 171.638 -6.94824
ltoes -2.53345
189
root 2.07414 15.9205 0.0397102 -38.1545 81.2203 -43.0793
lowerback 19.8723 3.34479 3.18401
upperback 4.21871 5.52532 3.02071
thorax -6.5203 2.75465 0.0500946
lowerneck -30.8894 2.49503 4.32424
upperneck 9.81915 2.79536 -5.69932
head 8.0415 0.928225 -2.22272
rclavicle 1.68967e-014 -7.55382e-015
rhumerus -23.9009 19.6824 -92.1706
rradius 98.8827
rwrist -12.5017
rhand -30.284 -19.7963
rfingers 7.12502
rthumb -3.59177 -49.7458
lclavicle 1.68967e-014 -7.55382e-015
lhumerus -72.3711 -16.1228 103.047
lradius 88.6848
lwrist 31.2194
lhand -35.1619 -23.396
lfingers 7.12502
lthumb -8.30106 6.4209
rfemur -1.00864 5.88464 33.3553
rtibia 33.8545
rfoot -34.2736 -6.07033
rtoes 3.13093
lfemur -37.6452 14.7032 -11.2353
ltibia 71.9357
lfoot 171.594 -6.86184
ltoes -2.55765
190
root 2.45566 16.0204 0.0227923 -38.2378 81.0311 -43.5173
lowerback 19.4055 3.70442 3.47619
upperback 4.00506 6.02129 2.96072
thorax -6.45973 2.98376 -0.272275
lowerneck -30.6258 2.03888 3.86383
upperneck 9.67977 2.2986 -5.27578
head 7.91595 0.726146 -2.07702
rclavicle 1.90833e-014 -2.38542e-015
rhumerus -23.1124 19.3782 -91.9619
rradius 100.255
rwrist -12.6697
rhand -30.5974 -18.8147
rfingers 7.12502
rthumb -3.89438 -48.7589
lclavicle 1.90833e-014 -2.38542e-015
lhumerus -74.8147 -16.6691 103.219
lradius 89.512
lwrist 30.8328
lhand -34.816 -22.8467
lfingers 7.12502
lthumb -7.9672 6.98314
rfemur 1.6128 6.49598 33.5391
rtibia 30.9739
rfoot -32.5983 -6.59271
rtoes -0.693819
lfemur -40.1958 14.799 -11.3119
ltibia 73.9056
lfoot 171.335 -6.95577
ltoes -2.47093
191
root 2.85787 16.1334 -0.0070707 -36.3144 81.1806 -41.8798
lowerback 18.912 4.07135 3.54623
upperback 3.71929 6.45907 2.68122
thorax -6.45399 3.18175 -0.684793
lowerneck -30.3288 1.52643 3.45209
upperneck 9.78474 1.70799 -4.85392
head 7.87087 0.475872 -1.95453
rclavicle 4.25399e-014 3.4191e-014
rhumerus -22.8487 19.2488 -91.7712
rradius 101.856
rwrist -13.0978
rhand -30.7718 -18.8808
rfingers 7.12502
rthumb -4.0628 -48.8218
lclavicle 4.25399e-014 3.4191e-014
lhumerus -77.429 -17.4003 103.512
lradius 90.2899
lwrist 30.3424
lhand -34.757 -22.3508
lfingers 7.12502
lthumb -7.91026 7.48116
rfemur 4.20247 6.97737 33.0269
rtibia 28.2329
rfoot -30.6827 -6.54722
rtoes -3.42639
lfemur -42.2107 14.5537 -12.0179
ltibia 76.5507
lfoot 170.521 -7.52176
ltoes -4.45275
